<svg xmlns="http://www.w3.org/2000/svg" xmlns:xlink="http://www.w3.org/1999/xlink" width="153" height="146" viewBox="0 0 153 146"><defs><style>.a{fill:#ecf8fe;opacity:0.75;}.b{fill:#39baf2;}.c{filter:url(#a);}</style><filter id="a" x="0" y="0" width="153" height="146" filterUnits="userSpaceOnUse"><feOffset dy="3" input="SourceAlpha"/><feGaussianBlur stdDeviation="3" result="b"/><feFlood flood-color="#f0f4fc"/><feComposite operator="in" in2="b"/><feComposite in="SourceGraphic"/></filter></defs><g transform="translate(-743 -3726)"><g class="c" transform="matrix(1, 0, 0, 1, 743, 3726)"><rect class="a" width="135" height="128" rx="12" transform="translate(9 6)"/></g><g transform="translate(776.699 3744.392)"><g transform="translate(0 24.802)"><path class="b" d="M79.3,47.669,77.1,38.836a1.335,1.335,0,0,0,1.057-1.306V36.106A5.614,5.614,0,0,0,72.545,30.5H62.486V27.561A2.762,2.762,0,0,0,59.727,24.8H8.456A2.762,2.762,0,0,0,5.7,27.561V51.772a1.335,1.335,0,1,0,2.67,0V27.561a.089.089,0,0,1,.089-.089H59.727a.089.089,0,0,1,.089.089V51.773a1.335,1.335,0,1,0,2.67,0V50.259H78.244a4.369,4.369,0,0,1,4.149,3.026H78.241a1.335,1.335,0,0,0-1.335,1.335v2.848a4.188,4.188,0,0,0,4.184,4.184H82.6v5.875H79.112a8.453,8.453,0,0,0-15.983,0h-.643V57.469a1.335,1.335,0,1,0-2.67,0V67.527h-27.7a8.453,8.453,0,0,0-15.983,0H8.456a.089.089,0,0,1-.089-.089V64.5h5.786a1.335,1.335,0,0,0,0-2.67H1.335a1.335,1.335,0,0,0,0,2.67H5.7v2.937A2.762,2.762,0,0,0,8.456,70.2h7.212c0,.03,0,.059,0,.089a8.456,8.456,0,1,0,16.912,0c0-.03,0-.059,0-.089H62.667c0,.03,0,.059,0,.089a8.456,8.456,0,1,0,16.912,0c0-.03,0-.059,0-.089h4.364a1.335,1.335,0,0,0,1.335-1.335V54.62A7.043,7.043,0,0,0,79.3,47.669Zm-16.818-14.5H72.545a2.941,2.941,0,0,1,2.937,2.937V36.2h-13Zm0,14.42V38.866H74.351l2.181,8.723ZM24.122,76.073a5.786,5.786,0,1,1,5.786-5.786A5.792,5.792,0,0,1,24.122,76.073Zm47,0a5.786,5.786,0,1,1,5.786-5.786A5.792,5.792,0,0,1,71.121,76.073ZM82.6,58.982H81.09a1.515,1.515,0,0,1-1.513-1.513V55.956H82.6v3.027Z" transform="translate(0 -24.802)"/></g><g transform="translate(21.363 67.527)"><path class="b" d="M36.58,92.443A2.759,2.759,0,1,0,39.339,95.2,2.762,2.762,0,0,0,36.58,92.443Z" transform="translate(-33.82 -92.443)"/></g><g transform="translate(68.361 67.527)"><path class="b" d="M110.985,92.443a2.759,2.759,0,1,0,2.759,2.759A2.762,2.762,0,0,0,110.985,92.443Z" transform="translate(-108.226 -92.443)"/></g><g transform="translate(34.181 61.831)"><path class="b" d="M75.387,83.424H55.448a1.335,1.335,0,0,0,0,2.67H75.387a1.335,1.335,0,1,0,0-2.67Z" transform="translate(-54.113 -83.424)"/></g><g transform="translate(2.848 56.134)"><path class="b" d="M22.935,74.405H5.845a1.335,1.335,0,0,0,0,2.67h17.09a1.335,1.335,0,0,0,0-2.67Z" transform="translate(-4.509 -74.405)"/></g><g transform="translate(24.211 37.619)"><path class="b" d="M60.548,45.485a1.335,1.335,0,0,0-1.888,0L46.786,57.359l-6.177-6.177a1.335,1.335,0,1,0-1.888,1.888l7.121,7.121a1.335,1.335,0,0,0,1.888,0L60.548,47.373A1.335,1.335,0,0,0,60.548,45.485Z" transform="translate(-38.33 -45.094)"/></g></g></g></svg>