<svg xmlns="http://www.w3.org/2000/svg" xmlns:xlink="http://www.w3.org/1999/xlink" width="153" height="146" viewBox="0 0 153 146"><defs><style>.a{fill:#ecf8fe;opacity:0.75;}.b{fill:#39baf2;}.c{filter:url(#a);}</style><filter id="a" x="0" y="0" width="153" height="146" filterUnits="userSpaceOnUse"><feOffset dy="3" input="SourceAlpha"/><feGaussianBlur stdDeviation="3" result="b"/><feFlood flood-color="#f0f4fc"/><feComposite operator="in" in2="b"/><feComposite in="SourceGraphic"/></filter></defs><g transform="translate(-226 -1710)"><g class="c" transform="matrix(1, 0, 0, 1, 226, 1710)"><rect class="a" width="135" height="128" rx="12" transform="translate(9 6)"/></g><g transform="translate(-51.012 1948.61)"><path class="b" d="M381.526-179.049h-1.071c-3.023,0-6.047.02-9.07-.014-.671-.008-.855.221-.83.852.04,1.041.048,2.087,0,3.127-.033.676.163.891.868.888,5.838-.028,11.677,0,17.515-.04a1.647,1.647,0,0,1,1.6.912q3.143,5.053,6.328,10.081c1.882,2.986,3.774,5.966,5.651,8.956a1.281,1.281,0,0,1,.185.646q.014,8.328,0,16.655a2.347,2.347,0,0,1-.05.3c-.318.022-.646.063-.976.064q-4.965.013-9.93.011c-.7,0-1.032.122-1.31.976a9.73,9.73,0,0,1-7.312,6.77c-4.643,1.169-9.632-1.8-11.258-6.105-.009-.024-.03-.043-.038-.067-.177-.506-.212-1.23-.567-1.461-.41-.267-1.1-.117-1.674-.118q-11.768-.006-23.535-.009c-.589,0-.889.047-1.108.786a9.439,9.439,0,0,1-7,6.886,9.718,9.718,0,0,1-11.9-6.946.826.826,0,0,0-.961-.734c-2.788.031-5.577.014-8.366.014h-.889c-.022-.321-.051-.548-.051-.774q0-12.237.007-24.474c0-5.44-.016-10.88,0-16.319,0-.69-.215-.887-.9-.879-3,.034-5.995.015-8.992.015h-.824l-.062-.169c.861-.711,1.713-1.434,2.586-2.13q4.563-3.641,9.136-7.268,7.312-5.829,14.617-11.669,5.645-4.519,11.264-9.071a.733.733,0,0,1,1.123.014c3.027,2.446,6.089,4.849,9.128,7.28,3.784,3.027,7.552,6.074,11.336,9.1q7.24,5.791,14.493,11.566C379.589-180.68,380.458-179.936,381.526-179.049Zm-43.281,18.216c0,.953-.045,1.835.014,2.71.048.718-.185.921-.91.918-5.63-.03-11.26-.017-16.89-.016-1,0-1,0-1,1.034,0,2.346.03,4.692-.018,7.037-.015.732.208.908.918.908q22.754-.029,45.508,0c.763,0,1.025-.157,1.022-.98q-.042-14.349,0-28.7c0-.79-.194-1-.994-1q-22.754.038-45.508.019h-.876v5.968h4.107c2.789,0,5.578-.011,8.366.018.27,0,.76.236.769.385.067,1.079.036,2.165.036,3.333H319.457c0,2.557.021,5.025-.013,7.493-.01.679.187.885.882.881,5.63-.028,11.26-.016,16.89-.016Zm-22.8-22.04.055.167h55.482a4.977,4.977,0,0,0-.4-.435q-6.845-5.48-13.694-10.955-6.611-5.29-13.213-10.591a.676.676,0,0,0-1.011.019q-4.7,3.787-9.41,7.549-6.553,5.243-13.11,10.482Q317.786-184.759,315.44-182.873Zm74.318,15.279c-.554-.865-1.067-1.564-1.467-2.322a1.2,1.2,0,0,0-1.248-.683c-5.134.019-10.269.011-15.4.011-1.066,0-1.067,0-1.067,1.059q0,14,.019,27.994c0,.409-.391,1.112.376,1.222.748.107.616-.684.745-1.075a9.329,9.329,0,0,1,7.389-6.656,9.372,9.372,0,0,1,9.8,3.744,6.206,6.206,0,0,1,1.581,3.685c0,.131.344.37.528.371,2.339.009,4.678-.016,7.017-.036.3,0,.6-.028.961-.046v-.778q0-5.669,0-11.338c0-1.116-.316-1.425-1.442-1.425-5.526,0-11.051-.009-16.576.01-.6,0-.8-.158-.8-.789.028-4.066.013-8.132.016-12.2,0-.225.032-.45.054-.748Zm-2.527,29.129a6.19,6.19,0,0,0-6.158-6.109,6.1,6.1,0,0,0-6.129,6.126,6.005,6.005,0,0,0,5.955,6.094C384.869-132.53,387.038-134.65,387.231-138.465Zm-51.73,6.139a6.069,6.069,0,0,0,6.13-6.124,6.058,6.058,0,0,0-6.115-6.119,6.11,6.11,0,0,0-6.146,6.128A6.139,6.139,0,0,0,335.5-132.327Zm7.894-12.225a22.792,22.792,0,0,1,1.509,3.414c.218.814.582.867,1.231.865,4.664-.014,9.328-.007,13.992-.008,2.006,0,4.013.01,6.019-.014.235,0,.668-.183.672-.294.047-1.312.03-2.625.03-3.964ZM395.98-157.56a2.455,2.455,0,0,0-.149-.4c-1.152-1.859-2.3-3.723-3.483-5.559a1.076,1.076,0,0,0-.791-.347c-2.344-.027-4.69,0-7.034-.027-.606-.008-.748.219-.737.779.031,1.589.036,3.179,0,4.768-.015.634.159.852.827.846,3.569-.032,7.139-.014,10.708-.017C395.519-157.516,395.717-157.542,395.98-157.56Zm-76.519,13.024c0,1.325-.019,2.6.027,3.865.005.137.382.37.59.374,1.72.03,3.44.005,5.161.025a.7.7,0,0,0,.768-.589,19.989,19.989,0,0,1,.824-2.165,15.615,15.615,0,0,1,.9-1.509Z" transform="translate(0 0)"/><path class="b" d="M563.882,40.558c-2.37,0-4.74-.017-7.11.012-.583.007-.76-.17-.757-.753q.03-7.11,0-14.22c0-.579.187-.758.768-.756q7.071.03,14.142,0c.6,0,.823.191.82.812q-.028,7.071.006,14.142c0,.674-.281.772-.838.768C568.57,40.548,566.226,40.558,563.882,40.558Zm4.106-11.972h-8.238a1.85,1.85,0,0,0-.1.4c-.007,2.446,0,4.892-.011,7.338,0,.544.313.628.764.625,1.873-.012,3.747,0,5.621,0h1.966Z" transform="translate(-211.743 -197.78)"/></g></g></svg>