<svg xmlns="http://www.w3.org/2000/svg" xmlns:xlink="http://www.w3.org/1999/xlink" width="153" height="146" viewBox="0 0 153 146"><defs><style>.a{fill:rgba(57,186,242,0.12);opacity:0.75;}.b{fill:#39baf2;}.c{filter:url(#a);}</style><filter id="a" x="0" y="0" width="153" height="146" filterUnits="userSpaceOnUse"><feOffset dy="3" input="SourceAlpha"/><feGaussianBlur stdDeviation="3" result="b"/><feFlood flood-color="#f0f4fc"/><feComposite operator="in" in2="b"/><feComposite in="SourceGraphic"/></filter></defs><g transform="translate(-226 -3726)"><g class="c" transform="matrix(1, 0, 0, 1, 226, 3726)"><rect class="a" width="135" height="128" rx="12" transform="translate(9 6)"/></g><g transform="translate(264 3717)"><path class="b" d="M72.547,74.632a16.888,16.888,0,0,0-13.512-4.876V52.812A6.82,6.82,0,0,0,52.223,46H6.712A6.821,6.821,0,0,0,0,52.812V98.226a6.82,6.82,0,0,0,6.812,6.812c47.1-.156,45.681.374,47.841-.451l4.327,4.327a2.27,2.27,0,0,0,3.211,0L72.547,98.557a16.909,16.909,0,0,0,0-23.925ZM25.128,50.541H34.21V61.895H25.128ZM6.812,100.5a2.273,2.273,0,0,1-2.271-2.271V52.812a2.273,2.273,0,0,1,2.271-2.271H20.587V64.165a2.271,2.271,0,0,0,2.271,2.271H36.481a2.271,2.271,0,0,0,2.271-2.271V50.541H52.223a2.273,2.273,0,0,1,2.271,2.271v18a16.915,16.915,0,0,0-5.87,27.744l1.939,1.939Zm62.524-5.15L60.585,104.1l-8.751-8.752a12.376,12.376,0,1,1,17.5,0Z" transform="translate(0)"/><path class="b" d="M360.161,266.7a7.236,7.236,0,1,0,7.235,7.236A7.244,7.244,0,0,0,360.161,266.7Zm0,9.931a2.695,2.695,0,1,1,2.694-2.695A2.7,2.7,0,0,1,360.161,276.631Z" transform="translate(-299.501 -187.291)"/><path class="b" d="M76.856,286H63.218a2.271,2.271,0,0,0,0,4.541H76.856a2.271,2.271,0,0,0,0-4.541Z" transform="translate(-51.721 -203.669)"/><path class="b" d="M76.841,346H63.218a2.271,2.271,0,0,0,0,4.541H76.841a2.271,2.271,0,0,0,0-4.541Z" transform="translate(-51.721 -254.586)"/></g></g></svg>