<svg xmlns="http://www.w3.org/2000/svg" xmlns:xlink="http://www.w3.org/1999/xlink" width="154" height="146" viewBox="0 0 154 146"><defs><style>.a{fill:#f0f9fe;opacity:0.75;}.b{fill:#39baf2;}.c{filter:url(#a);}</style><filter id="a" x="0" y="0" width="154" height="146" filterUnits="userSpaceOnUse"><feOffset dy="3" input="SourceAlpha"/><feGaussianBlur stdDeviation="3" result="b"/><feFlood flood-color="#f0f4fc"/><feComposite operator="in" in2="b"/><feComposite in="SourceGraphic"/></filter></defs><g transform="translate(-1260 -3726)"><g class="c" transform="matrix(1, 0, 0, 1, 1260, 3726)"><rect class="a" width="136" height="128" rx="12" transform="translate(9 6)"/></g><g transform="translate(1212.745 3504.417)"><g transform="translate(87.826 264.527)"><path class="b" d="M148.2,312.416H100.319q0,1.885,0,3.773c0,1.827-.612,2.444-2.428,2.445-2.282,0-4.564.005-6.846,0a1.885,1.885,0,0,1-2.1-2.076c0-5.979-.056-11.96.038-17.938a61.37,61.37,0,0,1,.647-7.061,14.564,14.564,0,0,1,2.656-6.51c.212-.3.387-.627.627-1.019-1.083-.339-2.07-.646-3.056-.957a2.5,2.5,0,0,1-1.992-3.06,2.86,2.86,0,0,1,2.8-2.572c1.877-.035,3.755-.026,5.632,0a1.123,1.123,0,0,0,1.111-.614c1.516-2.49,3.011-5,4.615-7.428a10.164,10.164,0,0,1,8.736-4.809q13.474-.132,26.95,0a10.237,10.237,0,0,1,8.861,4.9c1.558,2.394,3.033,4.843,4.517,7.285a1.182,1.182,0,0,0,1.172.665c1.761-.037,3.524-.02,5.286-.01a2.943,2.943,0,0,1,3.141,3.3,2.267,2.267,0,0,1-1.64,2.2c-1.089.372-2.189.709-3.408,1.1.291.484.524.933.814,1.343a15.741,15.741,0,0,1,2.8,8.791c.216,7.5.242,15.01.324,22.517a1.809,1.809,0,0,1-1.963,1.941q-3.726.023-7.452,0a1.817,1.817,0,0,1-1.946-1.956C148.19,315.287,148.2,313.9,148.2,312.416Zm-23.934-28.349q12.086,0,24.173,0a5.623,5.623,0,0,0,1.119-.072,1.19,1.19,0,0,0,.932-1.634,5.051,5.051,0,0,0-.518-.993c-2.022-3.263-4.064-6.513-6.071-9.785a7.084,7.084,0,0,0-6.309-3.612q-13.429-.065-26.859.017a6.929,6.929,0,0,0-6.085,3.535c-1.317,2.138-2.653,4.264-3.978,6.4-.792,1.275-1.6,2.543-2.362,3.834-.8,1.354-.292,2.261,1.264,2.3.577.015,1.155.011,1.733.011Zm23.7,14.939c1.009,0,2.018.02,3.027,0a3.925,3.925,0,0,0,3.829-2.455,3.77,3.77,0,0,0-.714-4.259,3.911,3.911,0,0,0-4.5-1.023c-1.9.671-3.792,1.358-5.686,2.041a2.873,2.873,0,0,0-2.156,3.363A2.927,2.927,0,0,0,144.858,299C145.9,299.021,146.934,299.008,147.971,299.006Zm-47.311,0c1.011,0,2.023.015,3.034,0a2.893,2.893,0,0,0,.937-5.687c-1.924-.7-3.85-1.4-5.79-2.056a4.585,4.585,0,0,0-1.69-.263,3.912,3.912,0,0,0-3.775,4.047A3.97,3.97,0,0,0,97.367,299C98.463,299.046,99.563,299.007,100.661,299.005Zm23.516,9.07c2.86,0,5.72.005,8.579,0,1.024,0,1.409-.4,1.426-1.411.008-.491.006-.982,0-1.473-.015-1.14-.354-1.475-1.524-1.477q-3.986-.008-7.973,0c-2.975,0-5.951,0-8.926,0-1.048,0-1.4.362-1.42,1.4-.009.491-.005.982,0,1.473.017,1.142.361,1.485,1.516,1.487Q120.017,308.082,124.176,308.076Z" transform="translate(-87.826 -264.527)"/><path class="b" d="M197.1,347.162H179.754a7.61,7.61,0,0,1,4.411-4.453c.162-.071.489.082.665.222a5.283,5.283,0,0,0,7.247.013.973.973,0,0,1,.734-.215A7.3,7.3,0,0,1,197.1,347.162Z" transform="translate(-163.816 -329.139)"/><path class="b" d="M333.134,347.17H315.7c.22-.474.371-.888.592-1.261a7.684,7.684,0,0,1,3.608-3.117,1.045,1.045,0,0,1,.892.136,5.31,5.31,0,0,0,7.251-.009c.175-.139.49-.3.647-.234A7.6,7.6,0,0,1,333.134,347.17Z" transform="translate(-276.19 -329.122)"/><path class="b" d="M214.865,298.737a4.012,4.012,0,1,1-3.957-4.29A4.095,4.095,0,0,1,214.865,298.737Z" transform="translate(-186.222 -289.26)"/><path class="b" d="M350.928,298.768a4.01,4.01,0,1,1-4.008-4.321A4.078,4.078,0,0,1,350.928,298.768Z" transform="translate(-298.699 -289.26)"/></g></g></g></svg>