<svg xmlns="http://www.w3.org/2000/svg" xmlns:xlink="http://www.w3.org/1999/xlink" width="154" height="146" viewBox="0 0 154 146"><defs><style>.a{fill:#f3fafe;opacity:0.75;}.b{fill:#39baf2;}.c{filter:url(#a);}</style><filter id="a" x="0" y="0" width="154" height="146" filterUnits="userSpaceOnUse"><feOffset dy="3" input="SourceAlpha"/><feGaussianBlur stdDeviation="3" result="b"/><feFlood flood-color="#f0f4fc"/><feComposite operator="in" in2="b"/><feComposite in="SourceGraphic"/></filter></defs><g transform="translate(-1260 -1710)"><g class="c" transform="matrix(1, 0, 0, 1, 1260, 1710)"><rect class="a" width="136" height="128" rx="12" transform="translate(9 6)"/></g><g transform="translate(684.658 1640.569)"><g transform="translate(621.983 103.315)"><path class="b" d="M652.924,103.315c1.139.893,2.3,1.76,3.414,2.683a32.6,32.6,0,0,0,17.111,7.342c2.072.259,4.168.339,6.256.437,1.882.088,2.856,1.021,2.875,2.9.047,4.683.151,9.367.115,14.049a64.979,64.979,0,0,1-2.518,18.585,36.921,36.921,0,0,1-17.351,21.8,49.386,49.386,0,0,1-9.348,4.237,3.421,3.421,0,0,1-2.039.075,47.5,47.5,0,0,1-15.315-8.355,36.86,36.86,0,0,1-11.847-18.629,58.225,58.225,0,0,1-1.856-10.314c-.717-7.283-.356-14.577-.269-21.868a2.554,2.554,0,0,1,2.721-2.47c1.737-.079,3.48-.121,5.21-.293a33.226,33.226,0,0,0,19.373-8.411c.726-.649,1.557-1.181,2.339-1.767Zm-.568,5.966c-7.232,6.358-15.72,9.172-25.126,9.535-.015.318-.033.527-.033.736,0,4.987-.057,9.975.038,14.961a50.3,50.3,0,0,0,1.822,12.38,31.527,31.527,0,0,0,9.465,15.553,41.4,41.4,0,0,0,13.594,7.831,1.042,1.042,0,0,0,.659-.051,46.076,46.076,0,0,0,9.55-4.785,31.46,31.46,0,0,0,11.5-13.425,45.784,45.784,0,0,0,3.634-16.769c.21-4.32.1-8.655.136-12.983.008-1.123,0-2.247,0-3.444C668.049,118.448,659.565,115.622,652.357,109.281Z" transform="translate(-621.983 -103.315)"/><path class="b" d="M754.112,304.631a8.969,8.969,0,0,1,.619-.826q5.706-5.72,11.419-11.434a2.6,2.6,0,0,1,2.812-.8,2.528,2.528,0,0,1,1.269,3.816,5.411,5.411,0,0,1-.65.74q-6.632,6.641-13.271,13.275c-1.5,1.5-2.827,1.5-4.32.011q-3.246-3.241-6.486-6.488a2.588,2.588,0,0,1-.368-3.5,2.517,2.517,0,0,1,3.89-.151c1.534,1.492,3.037,3.017,4.543,4.538A5.955,5.955,0,0,1,754.112,304.631Z" transform="translate(-727.265 -264.822)"/></g></g></g></svg>